<svg xmlns="http://www.w3.org/2000/svg" version="1.1" xmlns:xlink="http://www.w3.org/1999/xlink" xmlns:svgjs="http://svgjs.dev/svgjs" width="1000" height="1187" viewBox="0 0 1000 1187"><g transform="matrix(1,0,0,1,-0.2244914319399527,0.48056680161937493)"><svg viewBox="0 0 208 247" data-background-color="#ffffff" preserveAspectRatio="xMidYMid meet" height="1187" width="1000" xmlns="http://www.w3.org/2000/svg" xmlns:xlink="http://www.w3.org/1999/xlink"><g id="tight-bounds" transform="matrix(1,0,0,1,0.04669421784350902,-0.09999999999999432)"><svg viewBox="0 0 207.90661156431298 247.2" height="247.2" width="207.90661156431298"><g><svg viewBox="0 0 397.4975999999999 472.622808772987" height="247.2" width="207.90661156431298"><g><rect width="397.4975999999999" height="14.475812409350649" x="0" y="259.732718961039" fill="#f9ad59" opacity="1" stroke-width="0" stroke="transparent" fill-opacity="1" class="rect-qz-0" data-fill-palette-color="secondary" rx="1%" id="qz-0" data-palette-color="#f9ad59"></rect></g><g transform="matrix(1,0,0,1,0.9887999999999693,312.1033282535065)"><svg viewBox="0 0 395.52 160.5194805194805" height="160.5194805194805" width="395.52"><g id="textblocktransform"><svg viewBox="0 0 395.52 160.5194805194805" height="160.5194805194805" width="395.52" id="textblock"><g><svg viewBox="0 0 395.52 160.5194805194805" height="160.5194805194805" width="395.52"><g transform="matrix(1,0,0,1,0,0)"><svg width="395.52" viewBox="2 -37.5 123.19 50" height="160.5194805194805" data-palette-color="#3c2c32"><path d="M23.2-3.4L26.4-3.4 26.4 0 16.75 0 16.75-3.4 19.15-3.4 19.15-21.9 9.2-15.65 9.2-3.4 11.65-3.4 11.65 0 2 0 2-3.4 5.15-3.4 5.15-34.1 2-34.1 2-37.5 9.2-37.5 9.2-19.7 17.5-24.9Q18.45-25.5 19.75-25.5 21.05-25.5 22.13-24.48 23.2-23.45 23.2-21.55L23.2-21.55 23.2-3.4ZM37.65-15.3L37.65-3.4 48.25-3.4 48.25-21.95 37.65-15.3ZM30.45 12.5L30.45 9.1 33.55 9.1 33.55-21.55 30.4-21.55 30.4-25 37.65-25 37.65-19.3 46.3-24.75Q47.5-25.5 48.85-25.5 50.2-25.5 51.22-24.68 52.25-23.85 52.25-22.25L52.25-22.25 52.25-4.7Q52.25-2.4 51.6-1.55L51.6-1.55Q50.35 0 47.75 0L47.75 0 37.65 0 37.65 9.1 40.95 9.1 40.95 12.5 30.45 12.5ZM75.95-3.45L79.09-3.45 79.09 0 71.84 0 71.84-5.75 63.2-0.3Q61.65 0.5 60.27 0.5 58.9 0.5 58.07-0.5 57.25-1.5 57.25-2.8L57.25-2.8 57.25-20.3Q57.25-22.6 57.95-23.45L57.95-23.45Q59.15-25 61.75-25L61.75-25 71.84-25 71.84-34.1 68.55-34.1 68.55-37.5 75.95-37.5 75.95-3.45ZM71.84-9.75L71.84-21.6 61.25-21.6 61.25-3.15 71.84-9.75ZM98.24-25L98.24-25Q102.14-25 102.14-21.15L102.14-21.15 102.14-16.7 98.09-16.7 98.09-21.55 90.29-16.6 90.29-3.4 92.74-3.4 92.74 0 83.09 0 83.09-3.4 86.24-3.4 86.24-21.65 83.09-21.65 83.09-25.05 90.29-25.05 90.29-20.65 96.44-24.5Q97.24-25 98.24-25ZM121.29-25L121.29-25Q125.19-25 125.19-21.15L125.19-21.15 125.19-16.7 121.14-16.7 121.14-21.55 113.34-16.6 113.34-3.4 115.79-3.4 115.79 0 106.14 0 106.14-3.4 109.29-3.4 109.29-21.65 106.14-21.65 106.14-25.05 113.34-25.05 113.34-20.65 119.49-24.5Q120.29-25 121.29-25Z" opacity="1" transform="matrix(1,0,0,1,0,0)" fill="#3c2c32" class="wordmark-text-0" data-fill-palette-color="primary" id="text-0"></path></svg></g></svg></g></svg></g></svg></g><g transform="matrix(1,0,0,1,102.85970286982489,0)"><svg viewBox="0 0 191.77819426035015 221.8379220779221" height="221.8379220779221" width="191.77819426035015"><g><svg xmlns="http://www.w3.org/2000/svg" xmlns:xlink="http://www.w3.org/1999/xlink" version="1.1" x="8" y="0" viewBox="-250.70000000000002 140.98709328582086 63.39999999999998 80.01290671417914" enable-background="new -269 131 100 100" xml:space="preserve" height="221.8379220779221" width="175.77819426035015" class="icon-icon-0" data-fill-palette-color="accent" id="icon-0"><path d="M-200.1 163.7l-1-0.8c-1.2-1-3.1-0.6-3.8 0.8-0.3 0.7-0.6 7.7-0.6 8.9 0 0.2 0 0.6 0 0.7 0 1-0.9 1.8-1.9 1.6-0.8-0.1-1.4-0.9-1.4-1.7-0.1-12-3.7-20.4-10.5-26.7-4.1-3.8-9-7.2-10.5-4.6-0.4 0.7 0.2 2.2 0.9 4.1 1.4 4.3-2.9 11.2-9 18.1-5.7 6.5-12.8 14.5-12.8 26.4 0 16 15.1 30.5 31.7 30.5 16.6 0 31.7-14.5 31.7-30.5C-187.3 180.4-192.1 170.4-200.1 163.7zM-219 215.2c-7.2 0-13.1-5.9-13.1-13.1 0-3.6 1.4-6.8 3.8-9.2l7.2-8.6c1.1-1.3 3.2-1.3 4.3 0l7.2 8.6c2.3 2.4 3.8 5.6 3.8 9.2C-205.9 209.3-211.8 215.2-219 215.2z" fill="#fbb168" data-fill-palette-color="accent"></path></svg></g></svg></g><g></g></svg></g><defs></defs></svg><rect width="207.90661156431298" height="247.2" fill="none" stroke="none" visibility="hidden"></rect></g></svg></g></svg>